<svg width="1200" height="1200" viewBox="0 0 1200 1200" fill="none" xmlns="http://www.w3.org/2000/svg">
  <defs>
    <linearGradient id="bg" x1="0" y1="0" x2="1200" y2="1200" gradientUnits="userSpaceOnUse">
      <stop stop-color="#FFFFFF" />
      <stop offset="1" stop-color="#F8FAFC" />
    </linearGradient>
    <linearGradient id="accent" x1="0" y1="0" x2="1" y2="1">
      <stop stop-color="#0EA5E9" />
      <stop offset="1" stop-color="#6366F1" />
    </linearGradient>
  </defs>
  <rect width="1200" height="1200" fill="url(#bg)" />
  <rect x="120" y="140" width="960" height="920" rx="36" fill="#FFFFFF" stroke="#E2E8F0" stroke-width="2" />
  <rect x="180" y="210" width="420" height="280" rx="24" fill="#F8FAFC" stroke="#E2E8F0" stroke-width="2" />
  <rect x="210" y="250" width="320" height="16" rx="8" fill="#CBD5F5" />
  <rect x="210" y="285" width="280" height="12" rx="6" fill="#E2E8F0" />
  <rect x="210" y="315" width="240" height="12" rx="6" fill="#E2E8F0" />
  <rect x="210" y="345" width="200" height="12" rx="6" fill="#E2E8F0" />

  <rect x="180" y="540" width="420" height="320" rx="24" fill="#F8FAFC" stroke="#E2E8F0" stroke-width="2" />
  <rect x="210" y="590" width="300" height="14" rx="7" fill="#E2E8F0" />
  <rect x="210" y="625" width="260" height="10" rx="5" fill="#E2E8F0" />
  <rect x="210" y="650" width="240" height="10" rx="5" fill="#E2E8F0" />
  <rect x="210" y="675" width="220" height="10" rx="5" fill="#E2E8F0" />

  <rect x="650" y="210" width="370" height="650" rx="28" fill="#F8FAFC" stroke="#E2E8F0" stroke-width="2" />
  <rect x="690" y="260" width="290" height="14" rx="7" fill="#E2E8F0" />
  <rect x="690" y="300" width="250" height="12" rx="6" fill="#E2E8F0" />
  <rect x="690" y="328" width="210" height="12" rx="6" fill="#E2E8F0" />
  <rect x="690" y="390" width="260" height="12" rx="6" fill="#E2E8F0" />
  <rect x="690" y="420" width="220" height="12" rx="6" fill="#E2E8F0" />

  <rect x="700" y="470" width="280" height="180" rx="16" fill="#FFFFFF" stroke="#E2E8F0" stroke-width="2" />
  <path d="M720 580C760 550 820 530 880 530C940 530 980 550 1010 575" stroke="url(#accent)" stroke-width="8" stroke-linecap="round" />
  <circle cx="820" cy="520" r="26" fill="#E0F2FE" stroke="#7DD3FC" stroke-width="2" />
  <circle cx="940" cy="540" r="22" fill="#E0E7FF" stroke="#A5B4FC" stroke-width="2" />

  <g transform="translate(720 720)">
    <rect width="220" height="120" rx="20" fill="#FFFFFF" stroke="#E2E8F0" stroke-width="2" />
    <path d="M50 64L90 84L160 32" stroke="#10B981" stroke-width="10" stroke-linecap="round" stroke-linejoin="round" />
    <circle cx="48" cy="62" r="18" fill="#D1FAE5" />
  </g>

  <g transform="translate(240 860)">
    <rect width="320" height="110" rx="20" fill="#F8FAFC" stroke="#E2E8F0" stroke-width="2" />
    <circle cx="60" cy="55" r="28" fill="#E0F2FE" />
    <path d="M46 55L58 67L80 43" stroke="#0EA5E9" stroke-width="8" stroke-linecap="round" stroke-linejoin="round" />
    <rect x="110" y="38" width="170" height="14" rx="7" fill="#E2E8F0" />
    <rect x="110" y="60" width="130" height="10" rx="5" fill="#E2E8F0" />
  </g>

  <path d="M220 470H560" stroke="#CBD5E1" stroke-width="2" stroke-dasharray="10 8" />
  <path d="M650 620H1020" stroke="#CBD5E1" stroke-width="2" stroke-dasharray="10 8" />
</svg>
